<svg width="24" height="24" viewBox="0 0 24 24" fill="none" xmlns="http://www.w3.org/2000/svg">
<g clip-path="url(#clip0_1_414)">
<path d="M12 23.6667C12.7736 23.6667 13.5154 23.3594 14.0624 22.8124C14.6094 22.2654 14.9167 21.5235 14.9167 20.75H9.08336C9.08336 21.5235 9.39065 22.2654 9.93763 22.8124C10.4846 23.3594 11.2265 23.6667 12 23.6667Z" fill="white"/>
<path fill-rule="evenodd" clip-rule="evenodd" d="M12 3.13042L10.8377 3.36521C9.51934 3.63384 8.33425 4.34974 7.48305 5.39175C6.63186 6.43375 6.16683 7.73786 6.16669 9.08334C6.16669 9.99917 5.97127 12.2873 5.49731 14.5404C5.26398 15.659 4.94898 16.8242 4.53044 17.8333H19.4696C19.0511 16.8242 18.7375 15.6604 18.5027 14.5404C18.0288 12.2873 17.8334 9.99917 17.8334 9.08334C17.8329 7.73811 17.3677 6.43435 16.5165 5.39264C15.6654 4.35093 14.4805 3.63525 13.1623 3.36667L12 3.12896V3.13042ZM21.0709 17.8333C21.3961 18.4852 21.7723 19.0015 22.2084 19.2917H1.79169C2.22773 19.0015 2.60398 18.4852 2.92919 17.8333C4.24169 15.2083 4.70835 10.3667 4.70835 9.08334C4.70835 5.55417 7.21669 2.60834 10.549 1.93605C10.5286 1.73327 10.551 1.52848 10.6147 1.33488C10.6783 1.14128 10.7818 0.963177 10.9186 0.812047C11.0553 0.660918 11.2221 0.540121 11.4084 0.457449C11.5947 0.374776 11.7962 0.332062 12 0.332062C12.2038 0.332062 12.4053 0.374776 12.5916 0.457449C12.7779 0.540121 12.9448 0.660918 13.0815 0.812047C13.2182 0.963177 13.3217 1.14128 13.3854 1.33488C13.449 1.52848 13.4714 1.73327 13.4511 1.93605C15.0994 2.27132 16.5812 3.16595 17.6456 4.46844C18.7099 5.77094 19.2915 7.40126 19.2917 9.08334C19.2917 10.3667 19.7584 15.2083 21.0709 17.8333Z" fill="white"/>
<circle cx="17.8334" cy="6.16667" r="4.16667" fill="#FFAB7B"/>
</g>
<defs>
<clipPath id="clip0_1_414">
<rect width="23.3333" height="23.3333" fill="white" transform="translate(0.333336 0.333344)"/>
</clipPath>
</defs>
</svg>
