<svg width="414" height="144" viewBox="0 0 414 144" fill="none" xmlns="http://www.w3.org/2000/svg">
<g filter="url(#filter0_d_1_478)">
<path fill-rule="evenodd" clip-rule="evenodd" d="M162.098 64H0V144H414V64L251.902 64C250.358 87.4541 230.845 106 207 106C183.155 106 163.642 87.4541 162.098 64Z" fill="white"/>
</g>
<path fill-rule="evenodd" clip-rule="evenodd" d="M112.5 111.375H108.25V117.75H112.5V111.375ZM123.125 102.875H118.875V117.75H123.125V102.875ZM133.75 92.25H129.5V117.75H133.75V92.25ZM129.5 90.125C128.936 90.125 128.396 90.3489 127.997 90.7474C127.599 91.1459 127.375 91.6864 127.375 92.25V117.75C127.375 118.314 127.599 118.854 127.997 119.253C128.396 119.651 128.936 119.875 129.5 119.875H133.75C134.314 119.875 134.854 119.651 135.253 119.253C135.651 118.854 135.875 118.314 135.875 117.75V92.25C135.875 91.6864 135.651 91.1459 135.253 90.7474C134.854 90.3489 134.314 90.125 133.75 90.125H129.5ZM116.75 102.875C116.75 102.311 116.974 101.771 117.372 101.372C117.771 100.974 118.311 100.75 118.875 100.75H123.125C123.689 100.75 124.229 100.974 124.628 101.372C125.026 101.771 125.25 102.311 125.25 102.875V117.75C125.25 118.314 125.026 118.854 124.628 119.253C124.229 119.651 123.689 119.875 123.125 119.875H118.875C118.311 119.875 117.771 119.651 117.372 119.253C116.974 118.854 116.75 118.314 116.75 117.75V102.875ZM106.125 111.375C106.125 110.811 106.349 110.271 106.747 109.872C107.146 109.474 107.686 109.25 108.25 109.25H112.5C113.064 109.25 113.604 109.474 114.003 109.872C114.401 110.271 114.625 110.811 114.625 111.375V117.75C114.625 118.314 114.401 118.854 114.003 119.253C113.604 119.651 113.064 119.875 112.5 119.875H108.25C107.686 119.875 107.146 119.651 106.747 119.253C106.349 118.854 106.125 118.314 106.125 117.75V111.375Z" fill="#AAAAAA"/>
<g opacity="0.8" filter="url(#filter1_f_1_478)">
<circle cx="207.469" cy="75.5938" r="26.7188" fill="#1F615C"/>
</g>
<circle cx="207" cy="61" r="37.5" fill="#438883"/>
<path d="M217.547 61H196.453M207 50.4531V71.5469V50.4531Z" stroke="white" stroke-width="3" stroke-linecap="round" stroke-linejoin="round"/>
<path d="M54.5 119.097V111.597C54.5 110.404 54.0259 109.259 53.182 108.416C52.3381 107.572 51.1935 107.097 50 107.097C48.8065 107.097 47.6619 107.572 46.818 108.416C45.9741 109.259 45.5 110.404 45.5 111.597V119.097H38C37.2044 119.097 36.4413 118.781 35.8787 118.219C35.3161 117.656 35 116.893 35 116.097V99.7955C35 99.2774 35.1341 98.7682 35.3894 98.3174C35.6446 97.8666 36.0123 97.4895 36.4565 97.223L48.4565 90.023C48.9227 89.7432 49.4563 89.5955 50 89.5955C50.5437 89.5955 51.0773 89.7432 51.5435 90.023L63.5435 97.223C63.9877 97.4895 64.3554 97.8666 64.6106 98.3174C64.8659 98.7682 65 99.2774 65 99.7955V116.097C65 116.893 64.6839 117.656 64.1213 118.219C63.5587 118.781 62.7957 119.097 62 119.097H54.5Z" fill="url(#paint0_linear_1_478)"/>
<g clip-path="url(#clip0_1_478)">
<path d="M279.625 99V117C279.625 117.597 279.862 118.169 280.284 118.591C280.706 119.013 281.278 119.25 281.875 119.25H304.375C304.673 119.25 304.96 119.131 305.17 118.92C305.381 118.71 305.5 118.423 305.5 118.125V102.375C305.5 102.077 305.381 101.79 305.17 101.58C304.96 101.369 304.673 101.25 304.375 101.25H281.875C281.278 101.25 280.706 101.013 280.284 100.591C279.862 100.169 279.625 99.5967 279.625 99ZM279.625 99C279.625 98.4033 279.862 97.831 280.284 97.409C280.706 96.9871 281.278 96.75 281.875 96.75H301" stroke="#AAAAAA" stroke-width="1.6875" stroke-linecap="round" stroke-linejoin="round"/>
<path d="M299.312 111.938C300.244 111.938 301 111.182 301 110.25C301 109.318 300.244 108.562 299.312 108.562C298.381 108.562 297.625 109.318 297.625 110.25C297.625 111.182 298.381 111.938 299.312 111.938Z" fill="#AAAAAA"/>
</g>
<g clip-path="url(#clip1_1_478)">
<path d="M364 112.5C368.971 112.5 373 108.471 373 103.5C373 98.5294 368.971 94.5 364 94.5C359.029 94.5 355 98.5294 355 103.5C355 108.471 359.029 112.5 364 112.5Z" stroke="#AAAAAA" stroke-width="2.25" stroke-miterlimit="10"/>
<path d="M350.359 120.375C351.742 117.98 353.73 115.992 356.124 114.609C358.519 113.227 361.235 112.499 364 112.499C366.765 112.499 369.481 113.227 371.876 114.609C374.27 115.992 376.258 117.98 377.641 120.375" stroke="#AAAAAA" stroke-width="2.25" stroke-linecap="round" stroke-linejoin="round"/>
</g>
<defs>
<filter id="filter0_d_1_478" x="-25" y="37" width="464" height="130" filterUnits="userSpaceOnUse" color-interpolation-filters="sRGB">
<feFlood flood-opacity="0" result="BackgroundImageFix"/>
<feColorMatrix in="SourceAlpha" type="matrix" values="0 0 0 0 0 0 0 0 0 0 0 0 0 0 0 0 0 0 127 0" result="hardAlpha"/>
<feOffset dy="-2"/>
<feGaussianBlur stdDeviation="12.5"/>
<feComposite in2="hardAlpha" operator="out"/>
<feColorMatrix type="matrix" values="0 0 0 0 0 0 0 0 0 0 0 0 0 0 0 0 0 0 0.06 0"/>
<feBlend mode="normal" in2="BackgroundImageFix" result="effect1_dropShadow_1_478"/>
<feBlend mode="normal" in="SourceGraphic" in2="effect1_dropShadow_1_478" result="shape"/>
</filter>
<filter id="filter1_f_1_478" x="132.75" y="0.875" width="149.438" height="149.438" filterUnits="userSpaceOnUse" color-interpolation-filters="sRGB">
<feFlood flood-opacity="0" result="BackgroundImageFix"/>
<feBlend mode="normal" in="SourceGraphic" in2="BackgroundImageFix" result="shape"/>
<feGaussianBlur stdDeviation="24" result="effect1_foregroundBlur_1_478"/>
</filter>
<linearGradient id="paint0_linear_1_478" x1="50" y1="89.5955" x2="50" y2="119.097" gradientUnits="userSpaceOnUse">
<stop stop-color="#549994"/>
<stop offset="1" stop-color="#408782"/>
</linearGradient>
<clipPath id="clip0_1_478">
<rect width="36" height="36" fill="white" transform="translate(274 90)"/>
</clipPath>
<clipPath id="clip1_1_478">
<rect width="36" height="36" fill="white" transform="translate(346 90)"/>
</clipPath>
</defs>
</svg>
