<svg width="414" height="295" viewBox="0 0 414 295" fill="none" xmlns="http://www.w3.org/2000/svg">
<g filter="url(#filter0_d_1_406)">
<path d="M0 0H414V261.759C414 261.759 366 287 207 287C48 287 0 261.759 0 261.759V0Z" fill="url(#paint0_linear_1_406)"/>
<path d="M0.5 0.5H413.5V261.45C413.421 261.489 413.324 261.536 413.208 261.591C412.824 261.772 412.237 262.041 411.431 262.383C409.82 263.068 407.336 264.05 403.855 265.229C396.893 267.588 385.946 270.738 370.028 273.889C338.191 280.192 286.474 286.5 207 286.5C127.526 286.5 75.809 280.192 43.9721 273.889C28.0539 270.738 17.1065 267.588 10.1448 265.229C6.664 264.05 4.17968 263.068 2.56871 262.383C1.76323 262.041 1.17608 261.772 0.79188 261.591C0.676387 261.536 0.579233 261.489 0.5 261.45V0.5Z" stroke="black"/>
</g>
<defs>
<filter id="filter0_d_1_406" x="-4" y="0" width="422" height="295" filterUnits="userSpaceOnUse" color-interpolation-filters="sRGB">
<feFlood flood-opacity="0" result="BackgroundImageFix"/>
<feColorMatrix in="SourceAlpha" type="matrix" values="0 0 0 0 0 0 0 0 0 0 0 0 0 0 0 0 0 0 127 0" result="hardAlpha"/>
<feOffset dy="4"/>
<feGaussianBlur stdDeviation="2"/>
<feComposite in2="hardAlpha" operator="out"/>
<feColorMatrix type="matrix" values="0 0 0 0 0 0 0 0 0 0 0 0 0 0 0 0 0 0 0.25 0"/>
<feBlend mode="normal" in2="BackgroundImageFix" result="effect1_dropShadow_1_406"/>
<feBlend mode="normal" in="SourceGraphic" in2="effect1_dropShadow_1_406" result="shape"/>
</filter>
<linearGradient id="paint0_linear_1_406" x1="-10.5" y1="-17.0712" x2="239.544" y2="393.953" gradientUnits="userSpaceOnUse">
<stop stop-color="#429690"/>
<stop offset="1" stop-color="#2A7C76"/>
</linearGradient>
</defs>
</svg>
